<?xml version="1.0" encoding="UTF-8" standalone="no"?>
<!DOCTYPE svg PUBLIC "-//W3C//DTD SVG 1.1//EN" "http://www.w3.org/Graphics/SVG/1.1/DTD/svg11.dtd">
<svg width="100%" height="100%" viewBox="0 0 825 718" version="1.1" xmlns="http://www.w3.org/2000/svg" xmlns:xlink="http://www.w3.org/1999/xlink" xml:space="preserve" xmlns:serif="http://www.serif.com/" style="fill-rule:evenodd;clip-rule:evenodd;stroke-linejoin:round;stroke-miterlimit:2;">
    <g transform="matrix(1,0,0,1,-12.871,-66.518)">
        <path d="M773.25,66.519C725.095,130.901 676.384,195.773 627.082,259.854C584.02,315.824 541.886,373.838 496.467,426.753C490.115,434.152 484.774,442.757 476.253,448.004C558.26,320.6 640.96,193.915 722.974,66.519L693.428,66.519C646.608,142.261 601.022,219.509 553.483,294.063C546.615,304.829 540.793,316.251 532.747,326.198C577.694,240.01 622.397,153.573 666.477,66.519L607.908,66.519C571.601,152.716 535.753,239.716 499.575,325.162C487.52,353.635 475.44,382.28 462.256,410.168C495.495,293.953 532.11,181.127 566.959,66.519L480.399,66.519C469.002,168.462 460.565,273.367 446.708,372.848C444.779,274.159 445.602,166.667 446.708,66.519L393.32,66.519C395.581,82.576 397.83,99.649 399.54,116.276C409.831,216.355 423.019,314.612 433.232,414.313C434.901,430.611 437.518,446.83 436.859,463.035C401.605,333.121 370.743,198.804 337.86,66.519L292.248,66.519C315.157,149.866 340.482,233.558 362.739,315.832C330.29,232.697 297.505,149.894 265.295,66.519L185.991,66.519C222.958,131.991 258.604,197.63 294.838,263.482C330.974,329.151 368.475,394.799 400.577,464.072C349.744,400.768 304.892,332.604 257.002,266.592C209.049,200.495 162.473,133.262 115.499,66.519L12.871,66.519C39.523,115.384 68.999,164.058 96.839,213.205C100.741,220.092 103.716,228.312 108.242,233.936C112.624,239.383 119.843,244.084 125.865,249.486C189.643,306.713 252.905,365.435 316.091,423.125C333.317,438.853 350.556,454.817 367.403,471.329C372.691,476.512 378.887,481.069 382.954,487.396C307.345,435.5 235.124,380.208 161.63,326.198C185.394,368.088 209.154,409.98 233.158,451.633C278.491,468.018 326.268,485.607 367.922,505.019C324.934,494.447 284.885,480.937 243.525,468.738C293.869,559.034 421.009,777.014 423.902,783.876L619.31,447.484C578.936,469.655 541.578,494.843 499.056,514.866C542.281,474.02 589.433,436.151 637.451,398.243C644.159,392.947 652.908,387.785 657.664,382.176C661.232,377.97 664.413,371.063 667.514,365.589C689.354,327.041 712.904,287.915 734.895,248.967C696.371,289.98 656.252,330.317 617.755,371.81C579.29,413.267 540.071,454.512 497.505,490.506C585.201,385.968 677.596,284.119 768.585,181.068C774.548,174.315 781.942,167.802 786.727,160.853C791.465,153.974 794.915,145.814 799.166,138.566C811.792,117.037 824.492,95.257 837.523,73.256L837.523,66.518C816.099,66.519 794.674,66.519 773.25,66.519ZM480.917,204.392C482.046,200.288 493.896,196.237 498.021,197.136C499.196,197.391 504.932,200.574 506.314,203.355C507.21,205.158 506.181,208.216 506.833,210.611C507.549,213.247 509.78,213.783 509.944,216.314C510.288,221.617 505.48,225.752 500.614,227.197C498.826,232.666 496.957,238.055 495.428,243.784C492.133,246.411 486.216,248.43 480.917,247.412C476.623,240.229 478.438,213.414 480.917,204.392ZM284.472,177.958C283.539,179.332 276.417,186.534 274.623,187.288C268.813,189.726 259.254,186.826 255.445,183.142C254.097,181.839 252.741,178.61 250.78,175.885C247.729,171.644 241.846,164.898 242.486,157.226C243.06,150.354 252.542,145.171 252.336,135.456C252.263,132.06 249.902,129.709 250.264,126.644C250.809,121.989 254.73,118.376 258.555,116.796C262.595,119.375 267.849,121.533 273.586,120.942C276.37,124.184 276.043,128.535 277.732,132.864C279.253,136.761 282.999,139.565 283.433,144.268C284.458,155.297 289.119,171.118 284.472,177.958ZM342.005,308.057C339.473,310.188 334.524,309.905 331.121,311.166C329.492,309.856 327.989,308.422 326.456,307.02C327.952,298.593 323.652,293.842 324.383,284.73C327.589,281.568 335.804,281.276 338.895,284.73C338.331,293.823 343.269,299.971 342.005,308.057ZM291.728,374.92C284.081,371.503 284.036,356.801 282.398,349.004C284.888,344.243 292.692,345.3 296.912,347.967C296.116,356.413 306.399,357.668 312.462,360.925C315.351,373.543 303.853,380.337 291.728,374.92ZM326.973,403.429C322.084,403.306 320.31,400.07 317.644,397.725C317.605,390.43 320.346,385.914 328.529,386.84C335.487,390.343 331.14,399.724 326.973,403.429ZM446.189,473.402C449.632,467.513 451.904,462.263 454.999,459.406C460.46,458.611 461.58,462.156 463.296,465.108C463.671,467.732 461.869,468.177 461.737,470.291C462.24,473.075 464.675,473.923 466.404,475.475C467.899,472.475 473.995,470.33 477.806,472.883C481.87,482.657 477.482,491.038 472.105,500.354C468.383,506.801 465.599,517.538 457.073,515.386C451.17,513.897 451.485,509.137 449.301,502.427C446.876,495 438.974,491.942 438.412,487.914C437.858,483.919 443.637,477.77 446.189,473.402ZM417.164,434.527C418.608,441.545 414.187,446.6 410.424,450.077C409.342,449.779 408.946,448.793 407.315,449.04C401.911,441.709 408.895,429.252 417.164,434.527ZM403.168,495.689C412.251,494.236 413.657,485.1 423.383,484.286C421.846,491.455 423.529,504.102 423.383,511.757C418.602,514.256 416.709,512.876 413.018,515.387C407.967,518.82 405.63,534.437 397.466,527.309C390.155,520.922 400.18,500.969 403.168,495.689ZM500.093,523.678C504.029,533.866 507.302,543.187 506.313,557.888C503.507,599.752 468.489,626.356 429.084,623.715C387.396,620.918 355.679,581.733 366.885,533.526C376.759,532.975 389.56,527.461 395.393,536.635C395.29,543.985 395.944,557.079 403.687,556.332C412.155,555.517 411.315,529.919 427.013,532.49C429.341,530.645 429.112,528.818 431.677,527.307C433.698,526.115 436.508,526.636 438.412,525.232C440.546,523.667 440.035,520.863 442.042,517.458C443.56,514.89 446.142,514.996 446.189,511.755C449.039,513.744 452.909,514.713 454.999,517.458C453.847,525.351 455.955,529.978 461.737,530.934C460.341,532.665 462.582,536.968 463.296,539.746C466.192,541.41 466.024,536.054 468.475,535.6C471.107,535.391 472.086,536.83 473.661,537.673C478.288,533.323 476.856,525.493 482.992,523.16C488.697,520.991 493.413,526.602 500.093,523.678ZM572.659,390.987C569.316,391.052 567.56,387.647 563.847,386.84C565.409,383.391 569.04,382.01 569.548,377.511C575.357,374.157 581.865,364.995 588.728,367.663C587.458,375.934 580.44,390.839 572.659,390.987Z" style="fill:white;"/>
    </g>
</svg>
