<?xml version="1.0" encoding="UTF-8" standalone="no"?>
<!-- Generator: Adobe Illustrator 15.0.0, SVG Export Plug-In . SVG Version: 6.00 Build 0)  -->

<svg
   xmlns:dc="http://purl.org/dc/elements/1.1/"
   xmlns:cc="http://creativecommons.org/ns#"
   xmlns:rdf="http://www.w3.org/1999/02/22-rdf-syntax-ns#"
   xmlns:svg="http://www.w3.org/2000/svg"
   xmlns="http://www.w3.org/2000/svg"
   xmlns:sodipodi="http://sodipodi.sourceforge.net/DTD/sodipodi-0.dtd"
   xmlns:inkscape="http://www.inkscape.org/namespaces/inkscape"
   version="1.1"
   x="0px"
   y="0px"
   width="600"
   height="520"
   viewBox="0 0 600.00001 520.00001"
   enable-background="new 0 0 850.394 850.394"
   xml:space="preserve"
   id="svg52"
   sodipodi:docname="logo_breit_schwarz.svg"
   inkscape:version="0.92.2 (5c3e80d, 2017-08-06)"><metadata
     id="metadata58"><rdf:RDF><cc:Work
         rdf:about=""><dc:format>image/svg+xml</dc:format><dc:type
           rdf:resource="http://purl.org/dc/dcmitype/StillImage" /><dc:title></dc:title></cc:Work></rdf:RDF></metadata><defs
     id="defs56" /><sodipodi:namedview
     pagecolor="#ffffff"
     bordercolor="#666666"
     borderopacity="1"
     objecttolerance="10"
     gridtolerance="10"
     guidetolerance="10"
     inkscape:pageopacity="0"
     inkscape:pageshadow="2"
     inkscape:window-width="1366"
     inkscape:window-height="705"
     id="namedview54"
     showgrid="false"
     inkscape:zoom="0.70710678"
     inkscape:cx="349.99338"
     inkscape:cy="267.08052"
     inkscape:window-x="287"
     inkscape:window-y="1072"
     inkscape:window-maximized="1"
     inkscape:current-layer="svg52" /><g
     id="Ebene_2"
     display="none"
     style="display:none"
     transform="translate(0,-330.39398)" /><g
     id="g4664"
     transform="matrix(0.9959086,0,0,0.9959086,-98.244201,-158.87696)"><g
       id="g4650"><path
         style="opacity:1;fill:#FFFFFF;fill-opacity:1;stroke:#FFFFFF;stroke-width:1px;stroke-linecap:butt;stroke-linejoin:miter;stroke-opacity:1"
         d="M 399.48047,680.56586 267.68235,452.28646 359.58246,479.32001 261.59878,440.80804 209.03186,349.41471 370.16683,466.38261 171.03154,283.35292 99.61967,161.19198 h 77.1147 L 382.80862,450.11179 226.96869,161.19198 h 57.97328 l 68.62475,177.28477 -49.6916,-177.27227 33.78103,-0.0125 71.35695,287.83174 -31.3519,-287.83174 h 38.73622 l -0.23915,219.45813 24.01547,-219.45813 h 62.88844 l -74.35696,245.60594 104.2322,-245.60594 h 42.55887 l -95.92957,186.78365 114.5797,-186.78365 h 22.53897 l -177.96246,277.50381 213.25158,-277.50381 47.36675,-2.9e-4 -40.95653,70.65333 -202.9779,234.82118 167.38652,-173.02946 -57.67173,99.97551 -110.66053,92.61239 85.46571,-48.69877 z"
         id="path879"
         inkscape:connector-curvature="0"
         sodipodi:nodetypes="ccccccccccccccccccccccccccccccccccccc" /><path
         style="opacity:1;vector-effect:none;fill:#ffffff;fill-opacity:1;fill-rule:nonzero;stroke:none;stroke-width:1.21455979px;stroke-linecap:butt;stroke-linejoin:miter;stroke-miterlimit:4;stroke-dasharray:none;stroke-dashoffset:0;stroke-opacity:1;paint-order:fill markers stroke"
         d="m 445.94142,493.16152 c 9.39834,20.52776 4.21168,44.79022 -12.75822,59.68116 -16.9699,14.89094 -41.70063,16.88073 -60.83302,4.89451 -19.13239,-11.98622 -28.13144,-35.10733 -22.136,-56.87364 0,0 9.83546,-1.64827 11.45735,-1.95715 1.62189,-0.30888 8.88631,1.01393 9.03299,4.21073 0.0435,0.94803 -1.37207,11.62279 3.71338,13.17868 6.47565,1.98123 11.21119,-15.05839 12.56155,-15.04984 0.30347,0.002 2.68374,-1.85188 2.68374,-1.85188 l 4.71936,-0.52265 3.09283,-3.65563 5.31613,-1.39554 c 1.02047,-4.56136 4.84517,-9.2086 4.84517,-9.2086 l 5.46337,3.2054 c -0.21861,2.98059 -1.43556,7.97433 3.50288,10.45925 0.86566,0.43558 2.46554,6.25737 2.75728,6.60814 0.66011,0.79369 2.1354,-0.55157 3.27891,-3.00492 0.86765,-1.86151 2.62867,1.9829 5.0971,0.83473 2.14698,-0.99864 2.97667,-6.28881 4.82664,-8.47959 2.90569,-3.44099 11.93885,-0.80715 13.37856,-1.07316 z"
         id="path4577"
         inkscape:connector-curvature="0"
         sodipodi:nodetypes="cssczsssccccccsssssc" /><path
         style="opacity:1;fill:#ffffff;fill-opacity:1;stroke:#FFFFFF;stroke-width:1px;stroke-linecap:butt;stroke-linejoin:miter;stroke-opacity:1"
         d="m 389.0259,481.25796 c 1.62301,-0.33421 1.80563,-17.63354 0.46155,-17.09835 -2.99704,1.19337 -10.23549,7.49065 -10.23549,7.49065 0,0 -2.45019,0.26975 -3.42677,1.48235 -4.26703,5.29823 -5.79228,12.89465 -5.64745,17.71569 0.12507,4.1636 2.44267,6.37607 5.15346,6.29568 3.95924,-0.11741 7.67586,-11.65793 7.67586,-11.65793 z"
         id="path4595"
         inkscape:connector-curvature="0"
         sodipodi:nodetypes="cscssscc" /><path
         style="opacity:1;fill:#ffffff;fill-opacity:1;stroke:#FFFFFF;stroke-width:1px;stroke-linecap:butt;stroke-linejoin:miter;stroke-opacity:1"
         d="m 415.31519,458.25562 c 0.0434,-0.69555 7.22808,-13.60605 12.19759,-18.78252 2.74649,0.0668 4.01231,2.53981 5.48008,4.68458 0.033,0.99117 -0.24664,2.32342 -0.86179,4.02167 0.27813,1.16387 1.7056,1.98969 2.93891,2.87262 2.74382,-2.14295 5.12886,-2.49224 6.93849,-2.47488 3.72875,1.67291 2.42663,6.80777 1.94454,11.66727 -2.63429,5.99732 -5.14568,12.03078 -9.72272,17.4567 -1.17332,1.31844 -2.51054,2.2886 -4.15425,2.60745 -2.54695,-0.72534 -3.75395,-1.6492 -4.72877,-2.60745 -1.53282,-3.37621 -2.96601,-6.68544 -3.55764,-10.12047 -2.60702,-1.87955 -6.24449,-5.72986 -6.38605,-6.40815 -0.14156,-0.67829 -0.13181,-2.22127 -0.0884,-2.91682 z"
         id="path4597"
         inkscape:connector-curvature="0"
         sodipodi:nodetypes="zcccccccccczz" /><path
         style="opacity:1;fill:#ffffff;fill-opacity:1;stroke:#FFFFFF;stroke-width:1px;stroke-linecap:butt;stroke-linejoin:miter;stroke-opacity:1"
         d="m 386.34375,436.58148 -0.125,-4.28125 c 0.98569,-2.75495 2.93754,-4.12104 5.25,-4.96875 0.89203,0.28367 2.27847,0.25272 2.34375,1.0625 0.62081,1.26042 0.79584,2.52083 0.5,3.78125 -1.84252,1.94287 -3.44371,4.50194 -4.21875,6.9375 -1.75835,-0.57263 -3.23292,-1.29661 -3.75,-2.53125 z"
         id="path4599"
         inkscape:connector-curvature="0"
         sodipodi:nodetypes="ccccccc" /><path
         style="opacity:1;fill:#ffffff;fill-opacity:1;stroke:#FFFFFF;stroke-width:1px;stroke-linecap:butt;stroke-linejoin:miter;stroke-opacity:1"
         d="m 323.0625,401.39398 c -0.69606,-1.3332 -0.3591,-2.59261 0.0937,-3.84375 1.27072,-1.85608 2.74694,-3.52454 5.90625,-3.65625 1.86984,-0.10954 2.7315,1.39595 3.84375,2.5 -0.15706,1.85214 -0.21079,3.9626 -0.84375,4.625 -0.77212,2.19434 -1.94673,3.62841 -3.46875,4.40625 -2.44339,-0.66414 -4.33739,-1.95092 -5.5312,-4.03125 z"
         id="path4601"
         inkscape:connector-curvature="0"
         sodipodi:nodetypes="ccccccc" /><path
         style="opacity:1;fill:#ffffff;fill-opacity:1;stroke:#FFFFFF;stroke-width:1px;stroke-linecap:butt;stroke-linejoin:miter;stroke-opacity:1"
         d="m 309.28125,370.89398 c 1.73793,0.48012 5.64961,0.31523 5.64961,0.31523 0,0 3.01214,2.48107 3.81914,4.05977 0.807,1.5787 0.69976,4.17568 -0.0625,5.4375 -1.89995,2.78755 -4.06846,5.30654 -8.1875,5.875 -1.67688,-0.40916 -3.0339,-1.00693 -7.125,-1.4375 -2.53193,-0.52578 -3.64782,-4.74848 -4.3125,-7.25 -1.30152,-3.42204 -1.31394,-7.23082 -1.875,-10.875 0.18221,-1.04462 1.9375,-2.5625 1.9375,-2.5625 0,0 4.79639,-0.25561 6.875,0.625 0.81888,1.14201 1.81165,1.87343 1.40625,3.75 z"
         id="path4603"
         inkscape:connector-curvature="0"
         sodipodi:nodetypes="cczccccccccc" /><path
         style="opacity:1;fill:#ffffff;fill-opacity:1;stroke:#FFFFFF;stroke-width:1px;stroke-linecap:butt;stroke-linejoin:miter;stroke-opacity:1"
         d="m 339.94158,336.68091 c 0.78177,-0.95178 -0.0447,-6.33413 -0.17677,-6.23138 -1.8247,-2.70458 -1.823,-6.26865 -1.67938,-9.8995 -3.10312,-1.948 -6.34826,-4.26931 -10.25305,-0.66291 -0.61536,1.19054 -1.14579,2.67866 -0.15108,3.97788 0.80589,1.05259 0.10392,2.7814 0.34995,4.4632 0.39395,0.36724 0.87915,2.06096 1.03857,7.82238 0.47449,1.06306 1.06064,1.59897 2.93891,2.07712 2.07413,-0.33672 6.4441,0.20097 7.93285,-1.54679 z"
         id="path4605"
         inkscape:connector-curvature="0"
         sodipodi:nodetypes="ccccccccc" /><path
         style="opacity:1;fill:#ffffff;fill-opacity:1;stroke:#FFFFFF;stroke-width:1px;stroke-linecap:butt;stroke-linejoin:miter;stroke-opacity:1"
         d="M 277.5625,246.20648 268.5,232.14398 c -1.99268,-7.31122 3.76892,-10.64522 5.85225,-15.79105 0.52579,-2.37235 1.40262,-4.60793 -0.10225,-7.77145 l 0.006,-5.29864 c 0,0 2.3209,-6.16703 4.80936,-5.03347 2.48846,1.13356 8.57469,2.00602 11.87316,3.83211 3.70202,3.93624 1.22623,8.51375 5.79159,13.80676 2.17628,6.53801 1.71394,12.6765 3.20711,22.69324 -2.44486,6.87452 -6.06005,8.6547 -8.83211,11.49372 -3.11527,0.11598 -6.23018,0.22843 -9.23039,-0.80622 -1.40959,-0.85335 -2.79124,-1.5391 -4.3125,-3.0625 z"
         id="path4607"
         inkscape:connector-curvature="0"
         sodipodi:nodetypes="ccccczccccccc" /><path
         style="opacity:1;fill:#ffffff;fill-opacity:1;stroke:#FFFFFF;stroke-width:1px;stroke-linecap:butt;stroke-linejoin:miter;stroke-opacity:1"
         d="m 439.37848,289.12798 c 0.0285,-3.05401 -0.48695,-5.74565 -0.52032,-8.86149 -0.0594,-5.54703 0.39207,-11.48942 0.91584,-16.45327 0.66987,-1.28437 1.34909,-6.87432 10.8298,-6.77021 3.01972,-0.71834 5.56761,1.29015 8.09955,3.7578 0.0595,1.96322 -0.42136,3.45367 0.23484,5.93903 3.08557,3.04645 3.98851,7.58895 -4.5337,11.60476 -1.00616,4.04444 -1.8126,8.01948 -3.71231,12.37437 l -4.15425,2.03293 c -4.02725,0.60551 -7.54701,0.6501 -7.15945,-3.62392 z"
         id="path4609"
         inkscape:connector-curvature="0"
         sodipodi:nodetypes="cscccccccc" /><path
         style="opacity:1;fill:#ffffff;fill-opacity:1;stroke:#FFFFFF;stroke-width:1px;stroke-linecap:butt;stroke-linejoin:miter;stroke-opacity:1"
         d="m 501.20612,393.33784 c 0.34228,-1.56378 1.30773,-3.00293 2.82843,-4.33103 2.21977,-3.67696 5.62893,-6.25603 9.36917,-8.52948 1.74428,-0.42146 3.63172,-1.12615 4.81716,-0.44194 l -0.66291,3.97748 c -0.42291,3.59559 -4.31912,9.67042 -10.12047,13.16986 -2.82163,-0.90938 -5.05649,-2.11214 -6.23138,-3.84489 z"
         id="path4611"
         inkscape:connector-curvature="0"
         sodipodi:nodetypes="ccccccc" /></g></g></svg>