<?xml version="1.0" encoding="UTF-8" standalone="no"?>
<!-- Generator: Adobe Illustrator 15.0.0, SVG Export Plug-In . SVG Version: 6.00 Build 0)  -->

<svg
   xmlns:dc="http://purl.org/dc/elements/1.1/"
   xmlns:cc="http://creativecommons.org/ns#"
   xmlns:rdf="http://www.w3.org/1999/02/22-rdf-syntax-ns#"
   xmlns:svg="http://www.w3.org/2000/svg"
   xmlns="http://www.w3.org/2000/svg"
   xmlns:sodipodi="http://sodipodi.sourceforge.net/DTD/sodipodi-0.dtd"
   xmlns:inkscape="http://www.inkscape.org/namespaces/inkscape"
   version="1.1"
   x="0px"
   y="0px"
   width="600"
   height="520"
   viewBox="0 0 600.00001 520.00001"
   enable-background="new 0 0 850.394 850.394"
   xml:space="preserve"
   id="svg52"
   sodipodi:docname="logo_breit_weiß.svg"
   inkscape:version="0.92.2 (5c3e80d, 2017-08-06)"><metadata
     id="metadata58"><rdf:RDF><cc:Work
         rdf:about=""><dc:format>image/svg+xml</dc:format><dc:type
           rdf:resource="http://purl.org/dc/dcmitype/StillImage" /><dc:title></dc:title></cc:Work></rdf:RDF></metadata><defs
     id="defs56" /><sodipodi:namedview
     pagecolor="#ffffff"
     bordercolor="#666666"
     borderopacity="1"
     objecttolerance="10"
     gridtolerance="10"
     guidetolerance="10"
     inkscape:pageopacity="0"
     inkscape:pageshadow="2"
     inkscape:window-width="1366"
     inkscape:window-height="705"
     id="namedview54"
     showgrid="false"
     inkscape:zoom="0.5"
     inkscape:cx="344.71509"
     inkscape:cy="322.71221"
     inkscape:window-x="287"
     inkscape:window-y="1072"
     inkscape:window-maximized="1"
     inkscape:current-layer="svg52" /><g
     id="Ebene_2"
     display="none"
     style="display:none"
     transform="translate(0,-330.39398)" /><path
     style="opacity:1;fill:#ffffff;fill-opacity:1;stroke:none;stroke-width:0.99590862px;stroke-linecap:butt;stroke-linejoin:miter;stroke-opacity:1"
     d="M 299.60183,518.90443 168.34295,291.55902 259.86706,318.48196 162.28427,280.12756 109.93243,189.10815 270.40813,305.59749 72.087581,123.31665 0.96788508,1.6555191 H 77.767078 L 282.9982,289.39324 127.79587,1.6555191 h 57.73609 L 253.87594,178.21495 204.38764,1.667968 238.03046,1.6555191 309.09546,288.30962 277.87184,1.6555191 h 38.57773 L 316.2114,220.21576 340.12861,1.6555191 h 62.63114 L 328.70701,246.25659 432.51276,1.6555191 H 474.8975 L 379.36042,187.67496 493.47133,1.6555191 h 22.44675 L 338.68374,278.02395 551.06282,1.6555191 598.23577,1.6552303 557.44681,72.019489 355.29938,305.87992 522.00105,133.55839 l -57.43577,99.56647 -110.20777,92.23348 85.11603,-48.49952 z"
     id="path879"
     inkscape:connector-curvature="0"
     sodipodi:nodetypes="ccccccccccccccccccccccccccccccccccccc" /><path
     style="opacity:1;vector-effect:none;fill:#000000;fill-opacity:1;fill-rule:nonzero;stroke:none;stroke-width:1.20959055px;stroke-linecap:butt;stroke-linejoin:miter;stroke-miterlimit:4;stroke-dasharray:none;stroke-dashoffset:0;stroke-opacity:1;paint-order:fill markers stroke"
     d="m 345.87269,332.26684 c 9.35989,20.44377 4.19445,44.60696 -12.70602,59.43698 -16.90047,14.83001 -41.53001,16.81166 -60.58412,4.87448 -19.05412,-11.93718 -28.01635,-34.96369 -22.04544,-56.64094 0,0 9.79522,-1.64153 11.41048,-1.94915 1.61525,-0.30761 8.84995,1.00979 8.99603,4.19351 0.0433,0.94415 -1.36646,11.57523 3.69819,13.12476 6.44915,1.97312 11.16532,-14.99678 12.51015,-14.98827 0.30223,0.002 2.67276,-1.8443 2.67276,-1.8443 l 4.70005,-0.52051 3.08018,-3.64068 5.29438,-1.38983 c 1.01629,-4.54269 4.82534,-9.17092 4.82534,-9.17092 l 5.44102,3.19229 c -0.21771,2.96839 -1.42969,7.9417 3.48855,10.41645 0.86212,0.4338 2.45545,6.23177 2.746,6.58111 0.65741,0.79044 2.12666,-0.54932 3.26549,-2.99263 0.8641,-1.85389 2.61792,1.97479 5.07625,0.83131 2.13819,-0.99455 2.96449,-6.26308 4.80689,-8.44489 2.8938,-3.42691 11.89,-0.80385 13.32382,-1.06877 z"
     id="path4577"
     inkscape:connector-curvature="0"
     sodipodi:nodetypes="cssczsssccccccsssssc" /><path
     style="opacity:1;fill:#000000;fill-opacity:1;stroke:#000000;stroke-width:0.99590862px;stroke-linecap:butt;stroke-linejoin:miter;stroke-opacity:1"
     d="m 289.19004,320.41198 c 1.61637,-0.33284 1.79824,-17.56139 0.45966,-17.02839 -2.98478,1.18848 -10.19361,7.46 -10.19361,7.46 0,0 -2.44017,0.26865 -3.41275,1.47629 -4.24957,5.27655 -5.76858,12.84189 -5.62435,17.6432 0.12456,4.14657 2.43268,6.34999 5.13238,6.26993 3.94304,-0.11693 7.64445,-11.61024 7.64445,-11.61024 z"
     id="path4595"
     inkscape:connector-curvature="0"
     sodipodi:nodetypes="cscssscc" /><path
     style="opacity:1;fill:#000000;fill-opacity:1;stroke:#000000;stroke-width:0.99590862px;stroke-linecap:butt;stroke-linejoin:miter;stroke-opacity:1"
     d="m 315.37177,297.50375 c 0.0432,-0.6927 7.19851,-13.55038 12.14768,-18.70567 2.73526,0.0665 3.9959,2.52942 5.45766,4.66541 0.0329,0.98712 -0.24563,2.31392 -0.85826,4.00522 0.27699,1.15911 1.69862,1.98155 2.92688,2.86087 2.7326,-2.13419 5.10788,-2.48205 6.91011,-2.46476 3.71349,1.66607 2.4167,6.77992 1.93658,11.61954 -2.62351,5.97278 -5.12463,11.98155 -9.68294,17.38527 -1.16852,1.31305 -2.50027,2.27924 -4.13725,2.59679 -2.53653,-0.72238 -3.7386,-1.64246 -4.70943,-2.59679 -1.52655,-3.36239 -2.95387,-6.65808 -3.54308,-10.07906 -2.59635,-1.87186 -6.21894,-5.70642 -6.35992,-6.38193 -0.14098,-0.67552 -0.13127,-2.21218 -0.088,-2.90489 z"
     id="path4597"
     inkscape:connector-curvature="0"
     sodipodi:nodetypes="zcccccccccczz" /><path
     style="opacity:1;fill:#000000;fill-opacity:1;stroke:#000000;stroke-width:0.99590862px;stroke-linecap:butt;stroke-linejoin:miter;stroke-opacity:1"
     d="m 286.51886,275.91829 -0.12449,-4.26373 c 0.98166,-2.74368 2.92552,-4.10418 5.22852,-4.94842 0.88838,0.28251 2.26915,0.25168 2.33416,1.05815 0.61827,1.25526 0.79259,2.51052 0.49796,3.76578 -1.83498,1.93492 -3.42962,4.48352 -4.20149,6.90911 -1.75116,-0.57028 -3.21969,-1.2913 -3.73466,-2.52089 z"
     id="path4599"
     inkscape:connector-curvature="0"
     sodipodi:nodetypes="ccccccc" /><path
     style="opacity:1;fill:#000000;fill-opacity:1;stroke:#000000;stroke-width:0.99590862px;stroke-linecap:butt;stroke-linejoin:miter;stroke-opacity:1"
     d="m 223.49652,240.87476 c -0.69321,-1.32775 -0.35763,-2.58201 0.0933,-3.82803 1.26552,-1.84848 2.7357,-3.51012 5.88208,-3.64129 1.86219,-0.10909 2.72033,1.39024 3.82803,2.48977 -0.15642,1.84457 -0.20993,3.94639 -0.8403,4.60608 -0.76896,2.18536 -1.93877,3.61357 -3.45456,4.38822 -2.43339,-0.66142 -4.31964,-1.94293 -5.50857,-4.01475 z"
     id="path4601"
     inkscape:connector-curvature="0"
     sodipodi:nodetypes="ccccccc" /><path
     style="opacity:1;fill:#000000;fill-opacity:1;stroke:#000000;stroke-width:0.99590862px;stroke-linecap:butt;stroke-linejoin:miter;stroke-opacity:1"
     d="m 209.77166,210.49954 c 1.73082,0.47816 5.62649,0.31394 5.62649,0.31394 0,0 2.99982,2.47092 3.80352,4.04316 0.80369,1.57225 0.69689,4.1586 -0.0623,5.41526 -1.89218,2.77614 -4.05181,5.28483 -8.154,5.85096 -1.67002,-0.40749 -3.02149,-1.00281 -7.09585,-1.43162 -2.52157,-0.52363 -3.63289,-4.72905 -4.29486,-7.22034 -1.29619,-3.40803 -1.30856,-7.20123 -1.86732,-10.8305 0.18146,-1.04035 1.92957,-2.55202 1.92957,-2.55202 0,0 4.77677,-0.25456 6.84687,0.62245 0.81553,1.13733 1.80424,1.86576 1.4005,3.73465 z"
     id="path4603"
     inkscape:connector-curvature="0"
     sodipodi:nodetypes="cczccccccccc" /><path
     style="opacity:1;fill:#000000;fill-opacity:1;stroke:#000000;stroke-width:0.99590862px;stroke-linecap:butt;stroke-linejoin:miter;stroke-opacity:1"
     d="m 240.30654,176.42645 c 0.77857,-0.94788 -0.0445,-6.30821 -0.17604,-6.20588 -1.81724,-2.69352 -1.81555,-6.243 -1.67251,-9.859 -3.09043,-1.94003 -6.32229,-4.25184 -10.2111,-0.6602 -0.61285,1.18567 -1.14111,2.6677 -0.15047,3.96161 0.8026,1.04828 0.1035,2.77002 0.34852,4.44494 0.39234,0.36574 0.87555,2.05253 1.03432,7.79037 0.47255,1.05871 1.0563,1.59243 2.92689,2.06863 2.06564,-0.33535 6.41773,0.20014 7.90039,-1.54047 z"
     id="path4605"
     inkscape:connector-curvature="0"
     sodipodi:nodetypes="ccccccccc" /><path
     style="opacity:1;fill:#000000;fill-opacity:1;stroke:#000000;stroke-width:0.99590862px;stroke-linecap:butt;stroke-linejoin:miter;stroke-opacity:1"
     d="m 178.18268,86.322191 -9.02542,-14.004965 c -1.98453,-7.281307 3.7535,-10.601666 5.8283,-15.726442 0.52364,-2.362644 1.39689,-4.589077 -0.10183,-7.739654 l 0.006,-5.276961 c 0,0 2.3114,-6.141799 4.78968,-5.012876 2.47828,1.128922 8.53961,1.997812 11.82458,3.816431 3.68688,3.920135 1.22122,8.478917 5.7679,13.750271 2.16737,6.51126 1.70693,12.624635 3.19399,22.600393 -2.43486,6.846393 -6.03526,8.61929 -8.79598,11.446694 -3.10252,0.115506 -6.20469,0.227496 -9.19262,-0.802921 -1.40383,-0.849859 -2.77982,-1.532803 -4.29486,-3.04997 z"
     id="path4607"
     inkscape:connector-curvature="0"
     sodipodi:nodetypes="ccccczccccccc" /><path
     style="opacity:1;fill:#000000;fill-opacity:1;stroke:#000000;stroke-width:0.99590862px;stroke-linecap:butt;stroke-linejoin:miter;stroke-opacity:1"
     d="m 339.33661,129.06808 c 0.0284,-3.04151 -0.48496,-5.72214 -0.5182,-8.82523 -0.0591,-5.52434 0.39047,-11.44241 0.9121,-16.38596 0.66713,-1.27911 1.34357,-6.84619 10.78549,-6.742506 3.00736,-0.715401 5.54483,1.284872 8.06641,3.742426 0.0593,1.95519 -0.41964,3.43954 0.23388,5.91473 3.07294,3.03399 3.97219,7.5579 -4.51515,11.55728 -1.00204,4.02789 -1.80519,7.98667 -3.69712,12.32374 l -4.13726,2.02461 c -4.01077,0.60304 -7.51613,0.64745 -7.13015,-3.60909 z"
     id="path4609"
     inkscape:connector-curvature="0"
     sodipodi:nodetypes="cscccccccc" /><path
     style="opacity:1;fill:#000000;fill-opacity:1;stroke:#000000;stroke-width:0.99590862px;stroke-linecap:butt;stroke-linejoin:miter;stroke-opacity:1"
     d="m 400.91128,232.85158 c 0.34088,-1.55738 1.30238,-2.99065 2.81686,-4.31331 2.21069,-3.66192 5.6059,-6.23044 9.33084,-8.49458 1.73714,-0.41974 3.61686,-1.12155 4.79745,-0.44014 l -0.6602,3.96121 c -0.42118,3.58088 -4.30145,9.63085 -10.07906,13.11598 -2.81009,-0.90566 -5.0358,-2.1035 -6.20589,-3.82916 z"
     id="path4611"
     inkscape:connector-curvature="0"
     sodipodi:nodetypes="ccccccc" /></svg>