<?xml version="1.0" encoding="UTF-8" standalone="no"?>
<svg
   xmlns:dc="http://purl.org/dc/elements/1.1/"
   xmlns:cc="http://creativecommons.org/ns#"
   xmlns:rdf="http://www.w3.org/1999/02/22-rdf-syntax-ns#"
   xmlns:svg="http://www.w3.org/2000/svg"
   xmlns="http://www.w3.org/2000/svg"
   version="1.1"
   viewBox="0 0 1135.28 1134.36"
   data-name="Ebene 1"
   id="Ebene_1">
  <metadata
     id="metadata15">
    <rdf:RDF>
      <cc:Work
         rdf:about="">
        <dc:format>image/svg+xml</dc:format>
        <dc:type
           rdf:resource="http://purl.org/dc/dcmitype/StillImage" />
        <dc:title>schwarzpulver_logo</dc:title>
      </cc:Work>
    </rdf:RDF>
  </metadata>
  <defs
     id="defs4">
    <style
       id="style2">.cls-1{stroke:#000;stroke-miterlimit:10;}.cls-2{fill:#fff;}</style>
  </defs>
  <title
     id="title6">schwarzpulver_logo</title>
  <rect
     id="rect8"
     height="1249.07"
     width="1286.46"
     y="-56.19"
     x="-77.55"
     class="cls-1" />
  <path
     style="fill:#ffffff;stroke-width:0.55523539"
     id="path10"
     d="m 408.74032,434.8145 h 41.60934 L 564.17291,593.86167 478.65556,434.8145 h 31.88717 l 38.23351,96.96631 -27.87837,-96.96631 h 19.0057 L 579.39191,593.86167 562.08523,434.8145 h 21.33214 V 555.85581 L 597.14279,434.8145 h 34.85212 L 590.38557,571.46903 648.2411,434.8145 h 24.09722 L 619.1079,537.46642 682.66569,434.8145 H 694.9364 L 596.08784,587.30434 714.58062,434.8145 h 27.28427 l -22.10947,39.14965 -113.52898,129.18661 92.82425,-94.68984 -30.93772,53.71347 -63.36346,52.38646 47.75025,-26.82898 -77.92729,135.60514 -72.68586,-126.94346 47.52259,14.15295 -51.95892,-20.46598 -28.72233,-50.69299 87.866,63.76323 -109.40913,-100.32548 z m 142.42343,187.84168 c -8.27856,51.31485 67.23345,47.19501 53.79675,-3.33141 a 33.941539,33.941539 0 0 1 -4.31418,-0.55524 c -1.6657,-0.38311 -1.81562,-0.4664 -3.42025,0.55524 -1.60463,1.02163 -1.6657,3.18705 -1.94332,3.94772 -0.27762,0.76067 -0.46084,1.11047 -1.85449,0.63297 -1.39364,-0.4775 -1.60463,0.21099 -1.94332,0.84396 -0.33869,0.63296 -0.93279,1.43806 -1.86004,0.1277 -0.92724,-1.31035 0.0444,-2.22094 -1.26593,-2.99827 -1.31036,-0.77733 -1.86004,-2.19318 -2.02661,-4.51962 -0.16657,-2.32643 -1.22707,-2.10989 -1.94333,-2.57629 -0.71625,-0.4664 -2.32643,-0.46084 -3.25368,2.77618 -0.92724,3.23702 -2.493,1.90446 -4.05321,2.9594 -1.56022,1.05495 -0.76068,1.31036 -3.88665,2.1099 -3.12598,0.79954 -4.01435,5.86884 -5.31916,8.10643 -1.3048,2.2376 -3.33141,0.97167 -4.22534,-0.16657 -0.89393,-1.13823 -0.76067,-2.74286 -0.84396,-5.36357 -0.0833,-2.62071 -1.43806,-2.704 -2.8317,-3.16484 -1.39364,-0.46085 -6.60175,0.13325 -8.45623,0.51637 z m 14.15295,-13.80315 c -1.71568,1.23817 -2.67624,5.46351 -2.94275,8.32853 -0.26651,2.86501 1.74344,3.95327 3.21481,3.79781 1.47138,-0.15547 1.86004,-2.67068 3.40915,-4.80279 1.5491,-2.1321 1.97664,-0.96611 3.96993,-1.86004 1.9933,-0.89393 0.83285,-9.33906 0.83285,-9.95537 0,-0.61631 -0.19433,-1.4325 -1.6657,-1.11047 0.24985,0.3498 -5.13038,4.38636 -6.81829,5.60233 z m 14.87475,-3.78116 c 0.31093,0.97167 2.73176,2.87057 3.88665,3.91441 1.35478,1.19931 0.67184,2.93165 1.31591,4.60846 1.63794,4.28086 5.38578,0.97166 5.85218,0.2332 0.4664,-0.73847 5.11372,-10.64942 5.30805,-11.69881 a 5.3302596,5.3302596 0 0 0 -0.85506,-3.72008 c -0.73291,-0.88838 -2.13211,-0.69404 -3.17595,0.1166 a 1.9655332,1.9655332 0 0 1 -1.97664,0.4664 c -0.46639,-0.0389 -1.16044,-0.85506 -1.39364,-1.66571 -0.2332,-0.81064 0.55524,-0.93279 0.77733,-1.58797 0.2221,-0.65518 -0.31093,-1.31591 -1.11047,-2.22094 -0.79954,-0.90504 -2.1321,-0.69405 -2.90388,0.34979 -0.77178,1.04385 -2.68734,5.14704 -5.23032,8.2508 a 3.9421712,3.9421712 0 0 0 -0.49416,2.95385 z m -11.34901,-22.28159 c -1.44916,1.39364 -3.7756,5.91326 -0.61076,5.96878 3.16484,0.0555 2.93165,-3.24258 3.16484,-4.99712 0.2332,-1.75454 -2.55408,-0.97166 -2.55408,-0.97166 z m 63.89094,-17.76753 c 2.35419,1.14378 3.44246,-1.14934 4.52517,-2.05437 1.0827,-0.90504 1.87114,-2.59851 2.72065,-5.25253 0.84951,-2.65403 -1.75455,-1.62684 -2.22094,-1.38809 -0.4664,0.23875 -0.29983,0.48306 -2.1099,1.51024 -1.81006,1.02719 -4.62511,2.90388 -4.83055,5.13038 -0.0666,0.66628 -0.42753,0.91058 1.92667,2.05992 z m -101.09171,2.07103 c 0.0555,1.34922 0.98277,2.42082 2.55408,3.11487 1.57132,0.69404 2.66513,-1.62684 3.19261,-3.71453 0.52747,-2.08768 -2.09324,-3.33141 -4.18092,-2.26536 0.0111,0 -1.61574,1.51024 -1.56577,2.86502 z m -13.69765,-16.5016 c 0.40532,2.55408 0,5.33581 1.85448,6.84605 1.85449,1.51024 1.79896,2.14876 4.81944,1.79896 3.02048,-0.34979 4.64177,-1.44916 4.6973,-2.89832 0.0555,-1.44917 1.22151,-2.09324 -1.27705,-3.33142 -2.49855,-1.23817 -3.62568,-0.92724 -4.24755,-2.43748 -0.62186,-1.51024 0,-3.13708 -2.19318,-3.33141 -2.19318,-0.19433 -3.13152,-0.4664 -3.65344,0.75512 a 3.7256294,3.7256294 0 0 0 0.0111,2.5985 z m 16.36833,-25.68519 c 0.98277,4.85831 0.46085,6.42963 1.24928,7.15143 0.78844,0.72181 1.63795,1.66571 3.54241,0.85507 1.90445,-0.81065 3.01492,-0.72181 2.09879,-3.08711 -0.91614,-2.36531 -1.18266,-3.08156 -1.24928,-4.5918 -0.0666,-1.51024 0.33314,-3.08156 -1.31036,-3.21481 -1.6435,-0.13326 -1.63794,-0.78844 -2.95385,0 -1.31591,0.78843 -1.36588,2.88722 -1.36588,2.88722 z m 61.93651,-28.5391 c -0.32759,4.85276 -0.32759,9.71107 0.78843,10.54948 1.11603,0.8384 2.42638,1.57686 4.26421,0.39421 1.83783,-1.18265 2.49301,-3.93662 2.95385,-5.55235 a 4.5862442,4.5862442 0 0 1 3.28145,-3.33141 c 1.57131,-0.32759 0.84951,-3.80337 0,-4.99712 -0.84951,-1.19376 0.71625,-3.21482 -0.46085,-4.13095 -1.1771,-0.91614 -1.24928,-2.22094 -3.74229,-1.90446 -2.493,0.31648 -4.50851,0.63852 -5.61898,2.40972 -1.11047,1.7712 -1.45472,6.56288 -1.45472,6.56288 z m -94.2401,-21.51537 c 2.34865,3.39249 2.77618,3.88665 4.25866,6.26306 1.48247,2.3764 4.35304,3.39249 6.44073,2.77617 2.08768,-0.61631 6.00209,-2.69289 6.00209,-5.13037 0,-2.43748 0.43864,-6.0021 -0.52192,-8.78938 -0.96056,-2.78728 0.43863,-5.30805 -1.3048,-6.70169 -1.74344,-1.39364 -2.08769,-3.30365 -2.43194,-4.69729 -0.34424,-1.39364 -1.47137,-0.3498 -4.04211,-1.47693 -2.57074,-1.12712 -3.09266,-2.77617 -4.57514,-0.52192 -1.48248,2.25426 -1.47692,2.60961 -0.69404,4.44189 0.78288,1.83227 0.43308,4.87496 -0.96056,6.26305 -1.39364,1.38809 -2.17097,1.11047 -2.17097,4.35305 z"
     class="cls-2" />
</svg>
