<svg id="Ebene_1" data-name="Ebene 1" xmlns="http://www.w3.org/2000/svg" viewBox="0 0 1135.28 1134.36"><defs><style>.cls-1{stroke:#000;stroke-miterlimit:10;}.cls-2{fill:#fff;}</style></defs><title>schwarzpulver_logo</title><rect class="cls-1" x="-77.55" y="-56.19" width="1286.46" height="1249.07"/><path class="cls-2" d="M267.65,307.36h74.94l205,286.45L393.57,307.36H451L519.86,482,469.65,307.36h34.23L575,593.81,543.83,307.36h38.42v218l24.72-218h62.77L594.8,553.48,699,307.36H742.4L646.53,492.24,761,307.36H783.1L605.07,582,818.48,307.36h49.14L827.8,377.87,623.33,610.54,790.51,440l-55.72,96.74L620.67,631.09l86-48.32L566.32,827,435.41,598.37,521,623.86,427.42,587l-51.73-91.3L533.94,610.54,336.89,429.85ZM524.16,645.67c-14.91,92.42,121.09,85,96.89-6a61.13,61.13,0,0,1-7.77-1c-3-.69-3.27-.84-6.16,1s-3,5.74-3.5,7.11-.83,2-3.34,1.14-2.89.38-3.5,1.52-1.68,2.59-3.35.23.08-4-2.28-5.4-3.35-3.95-3.65-8.14-2.21-3.8-3.5-4.64-4.19-.83-5.86,5-4.49,3.43-7.3,5.33-1.37,2.36-7,3.8-7.23,10.57-9.58,14.6-6,1.75-7.61-.3-1.37-4.94-1.52-9.66-2.59-4.87-5.1-5.7-11.89.24-15.23.93Zm25.49-24.86c-3.09,2.23-4.82,9.84-5.3,15s3.14,7.12,5.79,6.84,3.35-4.81,6.14-8.65,3.56-1.74,7.15-3.35,1.5-16.82,1.5-17.93-.35-2.58-3-2C562.38,611.35,552.69,618.62,549.65,620.81ZM576.44,614c.56,1.75,4.92,5.17,7,7.05,2.44,2.16,1.21,5.28,2.37,8.3,2.95,7.71,9.7,1.75,10.54.42s9.21-19.18,9.56-21.07a9.6,9.6,0,0,0-1.54-6.7c-1.32-1.6-3.84-1.25-5.72.21a3.54,3.54,0,0,1-3.56.84c-.84-.07-2.09-1.54-2.51-3s1-1.68,1.4-2.86-.56-2.37-2-4-3.84-1.25-5.23.63-4.84,9.27-9.42,14.86A7.1,7.1,0,0,0,576.44,614ZM556,573.87c-2.61,2.51-6.8,10.65-1.1,10.75s5.28-5.84,5.7-9S556,573.87,556,573.87Zm115.07-32c4.24,2.06,6.2-2.07,8.15-3.7s3.37-4.68,4.9-9.46-3.16-2.93-4-2.5-.54.87-3.8,2.72-8.33,5.23-8.7,9.24C667.5,539.37,666.85,539.81,671.09,541.88ZM489,545.6c.1,2.43,1.77,4.36,4.6,5.61s4.8-2.93,5.75-6.69-3.77-6-7.53-4.08C491.84,540.44,488.91,543.16,489,545.6Zm-24.67-29.72c.73,4.6,0,9.61,3.34,12.33s3.24,3.87,8.68,3.24,8.36-2.61,8.46-5.22,2.2-3.77-2.3-6-6.53-1.67-7.65-4.39,0-5.65-3.95-6-5.64-.84-6.58,1.36A6.71,6.71,0,0,0,464.35,515.88Zm29.48-46.26c1.77,8.75.83,11.58,2.25,12.88s2.95,3,6.38,1.54,5.43-1.3,3.78-5.56-2.13-5.55-2.25-8.27.6-5.55-2.36-5.79-2.95-1.42-5.32,0S493.83,469.62,493.83,469.62Zm111.55-51.4c-.59,8.74-.59,17.49,1.42,19s4.37,2.84,7.68.71,4.49-7.09,5.32-10a8.26,8.26,0,0,1,5.91-6c2.83-.59,1.53-6.85,0-9s1.29-5.79-.83-7.44-2.25-4-6.74-3.43S610,403.21,608,406.4,605.38,418.22,605.38,418.22ZM435.63,379.47c4.23,6.11,5,7,7.67,11.28s7.84,6.11,11.6,5,10.81-4.85,10.81-9.24.79-10.81-.94-15.83.79-9.56-2.35-12.07-3.76-5.95-4.38-8.46-2.65-.63-7.28-2.66-5.57-5-8.24-.94-2.66,4.7-1.25,8,.78,8.78-1.73,11.28-3.91,2-3.91,7.84Z"/></svg>