<?xml version="1.0" encoding="UTF-8" standalone="no"?>
<svg
   xmlns:dc="http://purl.org/dc/elements/1.1/"
   xmlns:cc="http://creativecommons.org/ns#"
   xmlns:rdf="http://www.w3.org/1999/02/22-rdf-syntax-ns#"
   xmlns:svg="http://www.w3.org/2000/svg"
   xmlns="http://www.w3.org/2000/svg"
   version="1.1"
   viewBox="0 0 1135.28 1134.36"
   data-name="Ebene 1"
   id="Ebene_1">
  <metadata
     id="metadata15">
    <rdf:RDF>
      <cc:Work
         rdf:about="">
        <dc:format>image/svg+xml</dc:format>
        <dc:type
           rdf:resource="http://purl.org/dc/dcmitype/StillImage" />
        <dc:title>schwarzpulver_logo</dc:title>
      </cc:Work>
    </rdf:RDF>
  </metadata>
  <defs
     id="defs4">
    <style
       id="style2">.cls-1{stroke:#000;stroke-miterlimit:10;}.cls-2{fill:#fff;}</style>
  </defs>
  <title
     id="title6">schwarzpulver_logo</title>
  <rect
     id="rect8"
     height="1249.07"
     width="1286.46"
     y="-56.19"
     x="-77.55"
     class="cls-1" />
  <path
     style="fill:#ffffff;stroke-width:0.68931884"
     id="path10"
     d="m 346.9876,370.23755 h 51.65756 L 539.95552,567.69293 433.78663,370.23755 h 39.58759 l 47.46649,120.38264 -34.6107,-120.38264 h 23.59537 l 49.02436,197.45538 -21.48607,-197.45538 h 26.48363 v 150.27151 l 17.03997,-150.27151 h 43.26853 l -51.65755,169.65516 71.82703,-169.65516 h 29.91645 L 608.15671,497.67882 687.06304,370.23755 H 702.297 L 579.57756,559.55208 726.68509,370.23755 h 33.87313 l -27.44867,48.60388 -140.94502,160.3838 115.24031,-117.55643 -38.40884,66.68471 -78.66507,65.03723 59.28143,-33.30789 -96.74591,168.35234 -90.23872,-157.59896 58.9988,17.57074 -64.50645,-25.4083 -35.65848,-62.93481 109.08472,79.16137 -135.83028,-124.55301 z m 176.81717,233.20346 c -10.27773,63.70684 83.46962,58.5921 66.78811,-4.13592 a 42.138061,42.138061 0 0 1 -5.35602,-0.68932 c -2.06795,-0.47562 -2.25407,-0.57903 -4.24621,0.68932 -1.99212,1.26836 -2.06794,3.95669 -2.4126,4.90106 -0.34466,0.94436 -0.57213,1.37863 -2.30234,0.78583 -1.73018,-0.59281 -1.99212,0.26194 -2.4126,1.04777 -0.42049,0.78581 -1.15805,1.78533 -2.30922,0.15853 -1.15116,-1.62679 0.0552,-2.75727 -1.57164,-3.72232 -1.6268,-0.96505 -2.30923,-2.72281 -2.51602,-5.61106 -0.20679,-2.88824 -1.52339,-2.6194 -2.41261,-3.19844 -0.88923,-0.57903 -2.88824,-0.57213 -4.03942,3.4466 -1.15116,4.01872 -3.09503,2.36437 -5.03202,3.67407 -1.93699,1.30971 -0.94437,1.62679 -4.82523,2.61942 -3.88087,0.99262 -4.98377,7.2861 -6.60368,10.06404 -1.6199,2.77795 -4.13591,1.20632 -5.24572,-0.20679 -1.1098,-1.41311 -0.94436,-3.40524 -1.04776,-6.65882 -0.1034,-3.25358 -1.78534,-3.35699 -3.51552,-3.92912 -1.7302,-0.57213 -8.19601,0.16544 -10.49833,0.64107 z m 17.57074,-17.13647 c -2.13,1.53718 -3.32252,6.78289 -3.65339,10.33979 -0.33087,3.55688 2.16447,4.90794 3.99116,4.71494 1.8267,-0.19302 2.30921,-3.31563 4.23242,-5.96262 1.92319,-2.64698 2.45397,-1.19941 4.92863,-2.30922 2.47465,-1.10981 1.03397,-11.59434 1.03397,-12.35949 0,-0.76514 -0.24126,-1.77843 -2.06795,-1.37863 0.31019,0.43427 -6.36931,5.44562 -8.46484,6.95523 z m 18.46685,-4.69427 c 0.38602,1.20633 3.39145,3.56378 4.82523,4.85971 1.68195,1.48892 0.83409,3.63961 1.6337,5.72135 2.03348,5.31464 6.68638,1.2063 7.26541,0.28952 0.57904,-0.91681 6.34863,-13.22115 6.58989,-14.52396 a 6.6174607,6.6174607 0 0 0 -1.06155,-4.61843 c -0.9099,-1.10292 -2.64699,-0.86165 -3.9429,0.14475 a 2.4401886,2.4401886 0 0 1 -2.45399,0.57903 c -0.57902,-0.0483 -1.44067,-1.06155 -1.73018,-2.06796 -0.28952,-1.0064 0.68932,-1.15805 0.96504,-1.97144 0.27574,-0.8134 -0.38601,-1.63369 -1.37864,-2.75728 -0.99262,-1.1236 -2.64697,-0.86166 -3.60513,0.43426 -0.95815,1.29592 -3.3363,6.39 -6.49339,10.24328 a 4.8941637,4.8941637 0 0 0 -0.61349,3.66717 z m -14.08968,-27.66235 c -1.79912,1.73018 -4.68737,7.34125 -0.75825,7.41018 3.92911,0.0689 3.63961,-4.02564 3.92911,-6.20388 0.28952,-2.17824 -3.17086,-1.2063 -3.17086,-1.2063 z m 79.31993,-22.05821 c 2.92271,1.42 4.27377,-1.42689 5.61795,-2.55048 1.34416,-1.12359 2.323,-3.22601 3.37765,-6.52096 1.05466,-3.29494 -2.17824,-2.0197 -2.75727,-1.72329 -0.57903,0.29641 -0.37223,0.59972 -2.61941,1.87495 -2.24718,1.27524 -5.74203,3.60513 -5.99708,6.3693 -0.0827,0.82719 -0.53077,1.13048 2.39194,2.55737 z m -125.50429,2.57117 c 0.0689,1.67504 1.22011,3.00542 3.17087,3.86708 1.95078,0.86164 3.30872,-2.0197 3.96359,-4.61156 0.65484,-2.59183 -2.59874,-4.13591 -5.19057,-2.81242 0.0138,0 -2.00593,1.87495 -1.94389,3.5569 z m -17.00549,-20.48656 c 0.5032,3.17086 0,6.62435 2.30233,8.4993 2.30233,1.87494 2.23338,2.66765 5.98328,2.23338 3.74989,-0.43425 5.76271,-1.79911 5.83164,-3.59823 0.0689,-1.79912 1.51649,-2.59873 -1.58544,-4.13592 -3.10193,-1.53718 -4.50124,-1.15116 -5.27328,-3.02611 -0.77205,-1.87495 0,-3.89465 -2.72282,-4.13591 -2.72281,-0.24126 -3.88775,-0.57903 -4.53571,0.93747 a 4.6253294,4.6253294 0 0 0 0.0138,3.22602 z m 20.32111,-31.8879 c 1.2201,6.03155 0.57214,7.98233 1.55098,8.87843 0.97883,0.89612 2.03349,2.06796 4.39786,1.06156 2.36435,-1.00641 3.74298,-0.89611 2.60562,-3.83261 -1.13738,-2.93651 -1.46826,-3.82573 -1.55096,-5.70067 -0.0827,-1.87495 0.41358,-3.82573 -1.6268,-3.99116 -2.04039,-0.16543 -2.03349,-0.97883 -3.66718,0 -1.63369,0.97883 -1.69573,3.58445 -1.69573,3.58445 z m 76.89352,-35.43098 c -0.40669,6.02465 -0.40669,12.05619 0.97883,13.09707 1.38554,1.04086 3.01233,1.95765 5.29397,0.4894 2.28165,-1.46825 3.09505,-4.88728 3.66718,-6.89319 a 5.6937735,5.6937735 0 0 1 4.07389,-4.1359 c 1.95076,-0.4067 1.05464,-4.72185 0,-6.20387 -1.05466,-1.48205 0.88921,-3.99117 -0.57215,-5.12854 -1.46136,-1.13737 -1.55096,-2.75727 -4.64602,-2.36437 -3.09503,0.39291 -5.59726,0.79272 -6.9759,2.99165 -1.37864,2.19893 -1.80602,8.14775 -1.80602,8.14775 z M 462.77938,419.94433 c 2.91582,4.21174 3.4466,4.82524 5.28708,7.77552 1.84047,2.95028 5.40425,4.21174 7.9961,3.44659 2.59183,-0.76514 7.45153,-3.34319 7.45153,-6.36929 0,-3.02612 0.54457,-7.45155 -0.64796,-10.91193 -1.19252,-3.46039 0.54456,-6.58989 -1.6199,-8.32008 -2.16445,-1.73019 -2.59184,-4.10144 -3.01922,-5.83164 -0.42737,-1.73018 -1.82669,-0.43427 -5.01824,-1.83359 -3.19155,-1.3993 -3.8395,-3.44658 -5.67998,-0.64796 -1.84049,2.79864 -1.83359,3.23981 -0.86165,5.51456 0.97193,2.27475 0.53766,6.05222 -1.19252,7.77551 -1.7302,1.7233 -2.69524,1.37864 -2.69524,5.40427 z"
     class="cls-2" />
</svg>
